#N struct text float x float y text t;
#N canvas 502 361 1440 838 10;
#X obj 129 112 cnv 15 700 316 empty empty empty 20 12 0 14 -216236
-66577 0;
#X obj 37 195 mod 16;
#X obj 790 407 bng 15 250 50 0 empty empty Panic -44 5 1 12 -258113
-1 -1;
#X obj 672 407 bng 15 250 50 0 empty empty Reset_C4 -64 5 1 12 -260097
-1 -1;
#X obj 221 229 bng 15 250 50 0 empty empty Random -45 7 1 11 -261682
-1 -1;
#X obj 372 408 nbx 2 14 1 16 0 1 empty empty Midi\ Channel -94 5 1
12 -260097 -1 -1 1 256 0;
#X obj 228 338 nbx 2 14 1 16 0 1 empty empty Steps -38 7 1 11 -204800
-1 -1 16 256 0;
#X obj 221 254 nbx 2 14 1 10 0 1 empty empty Octaves -48 7 1 11 -261682
-1 -1 3 256 0;
#X obj 186 195 hradio 15 0 1 5 empty empty Transp -44 5 1 11 -262144
-1 -1 1;
#X obj 916 390 loadbang;
#N canvas 1358 546 450 433 panic 0;
#X obj 134 313 ctlout;
#X msg 134 289 123 123 \$1;
#X obj 195 172 until;
#X obj 195 194 f 0;
#X obj 226 194 + 1;
#X obj 195 217 t f b;
#X msg 223 238 0;
#X msg 195 147 128;
#X obj 195 260 noteout \$1;
#X obj 134 123 t f b b f;
#X msg 227 146 0;
#X obj 134 85 \$1;
#X obj 88 31 inlet;
#X obj 172 30 inlet;
#X connect 1 0 0 0;
#X connect 2 0 3 0;
#X connect 3 0 4 0;
#X connect 3 0 5 0;
#X connect 4 0 3 1;
#X connect 5 0 8 0;
#X connect 5 1 6 0;
#X connect 6 0 8 1;
#X connect 7 0 2 0;
#X connect 9 0 1 0;
#X connect 9 1 7 0;
#X connect 9 2 10 0;
#X connect 9 3 8 2;
#X connect 10 0 3 1;
#X connect 11 0 9 0;
#X connect 12 0 11 0;
#X connect 13 0 11 1;
#X restore 368 484 pd panic;
#N canvas 1219 8 653 870 notegenerator 0;
#X obj 214 547 noteout;
#X obj 187 309 - 2;
#X obj 172 434 moses 0;
#X obj 154 364 + \$1;
#X obj 172 403 moses 127;
#X obj 187 332 * 12;
#X obj 39 68 inlet;
#X obj 95 68 inlet;
#X obj 196 68 inlet;
#X obj 248 68 inlet;
#X text 31 46 transp;
#X text 88 47 channel;
#X text 193 47 notes;
#X text 241 47 gatetime;
#X floatatom 349 554 5 0 0 0 - - #0-ss-n1, f 5;
#X floatatom 426 552 5 0 0 0 - - #0-ss-n2, f 5;
#X obj 212 471 makenote 127 320;
#X connect 1 0 5 0;
#X connect 2 1 16 0;
#X connect 3 0 4 0;
#X connect 4 0 2 0;
#X connect 5 0 3 1;
#X connect 6 0 1 0;
#X connect 7 0 0 2;
#X connect 8 0 3 0;
#X connect 9 0 16 2;
#X connect 16 0 0 0;
#X connect 16 0 14 0;
#X connect 16 1 0 1;
#X connect 16 1 15 0;
#X restore 211 751 pd notegenerator;
#N canvas 374 247 1044 710 randomizer 0;
#X obj 73 315 random 12;
#X obj 73 341 - 6;
#X obj 73 366 * \$1;
#X obj 73 391 + 64;
#X obj 146 315 random 12;
#X obj 146 341 - 6;
#X obj 146 366 * \$1;
#X obj 146 391 + 64;
#X obj 219 315 random 12;
#X obj 219 341 - 6;
#X obj 219 366 * \$1;
#X obj 219 391 + 64;
#X obj 292 315 random 12;
#X obj 292 341 - 6;
#X obj 292 366 * \$1;
#X obj 292 391 + 64;
#X obj 365 315 random 12;
#X obj 365 341 - 6;
#X obj 365 366 * \$1;
#X obj 365 391 + 64;
#X obj 438 315 random 12;
#X obj 438 341 - 6;
#X obj 438 366 * \$1;
#X obj 438 391 + 64;
#X obj 511 315 random 12;
#X obj 511 341 - 6;
#X obj 511 366 * \$1;
#X obj 511 391 + 64;
#X obj 584 315 random 12;
#X obj 584 341 - 6;
#X obj 584 366 * \$1;
#X obj 584 391 + 64;
#X obj 67 433 random 12;
#X obj 67 460 - 6;
#X obj 67 485 * \$1;
#X obj 67 510 + 64;
#X obj 140 433 random 12;
#X obj 140 459 - 6;
#X obj 140 484 * \$1;
#X obj 140 509 + 64;
#X obj 213 433 random 12;
#X obj 213 459 - 6;
#X obj 213 484 * \$1;
#X obj 213 509 + 64;
#X obj 286 433 random 12;
#X obj 286 459 - 6;
#X obj 286 484 * \$1;
#X obj 286 509 + 64;
#X obj 359 433 random 12;
#X obj 359 459 - 6;
#X obj 359 484 * \$1;
#X obj 359 509 + 64;
#X obj 432 433 random 12;
#X obj 432 459 - 6;
#X obj 432 484 * \$1;
#X obj 432 509 + 64;
#X obj 505 433 random 12;
#X obj 505 459 - 6;
#X obj 505 484 * \$1;
#X obj 505 509 + 64;
#X obj 578 433 random 12;
#X obj 578 459 - 6;
#X obj 578 484 * \$1;
#X obj 578 509 + 64;
#X floatatom 124 215 5 1 10 0 octave - -, f 5;
#X obj 97 37 inlet;
#X text 90 18 rndbang;
#X obj 28 37 inlet;
#X text 24 15 rndoctv;
#X obj 550 117 select 0 1 2 3 4 5 6 7 8 9 10 11 12 13 14 15;
#X obj 164 38 inlet;
#X text 163 17 steps;
#X obj 473 228 spigot;
#X obj 440 202 spigot;
#X obj 539 228 spigot;
#X obj 506 202 spigot;
#X obj 605 228 spigot;
#X obj 572 202 spigot;
#X obj 671 228 spigot;
#X obj 638 202 spigot;
#X obj 737 228 spigot;
#X obj 704 202 spigot;
#X obj 803 228 spigot;
#X obj 770 202 spigot;
#X obj 869 228 spigot;
#X obj 836 202 spigot;
#X obj 935 228 spigot;
#X obj 902 202 spigot;
#X obj 238 37 inlet;
#X obj 277 37 inlet;
#X obj 316 37 inlet;
#X obj 355 37 inlet;
#X obj 394 37 inlet;
#X obj 433 37 inlet;
#X obj 472 37 inlet;
#X obj 511 37 inlet;
#X obj 550 37 inlet;
#X obj 589 37 inlet;
#X obj 628 37 inlet;
#X obj 667 37 inlet;
#X obj 706 37 inlet;
#X obj 745 37 inlet;
#X obj 784 37 inlet;
#X obj 823 37 inlet;
#X obj 3 590 outlet;
#X obj 48 590 outlet;
#X obj 93 590 outlet;
#X obj 138 590 outlet;
#X obj 183 590 outlet;
#X obj 228 590 outlet;
#X obj 273 590 outlet;
#X obj 318 590 outlet;
#X obj 363 590 outlet;
#X obj 408 590 outlet;
#X obj 453 590 outlet;
#X obj 498 590 outlet;
#X obj 543 590 outlet;
#X obj 588 590 outlet;
#X obj 633 590 outlet;
#X obj 678 590 outlet;
#X connect 0 0 1 0;
#X connect 1 0 2 0;
#X connect 2 0 3 0;
#X connect 3 0 104 0;
#X connect 4 0 5 0;
#X connect 5 0 6 0;
#X connect 6 0 7 0;
#X connect 7 0 105 0;
#X connect 8 0 9 0;
#X connect 9 0 10 0;
#X connect 10 0 11 0;
#X connect 11 0 106 0;
#X connect 12 0 13 0;
#X connect 13 0 14 0;
#X connect 14 0 15 0;
#X connect 15 0 107 0;
#X connect 16 0 17 0;
#X connect 17 0 18 0;
#X connect 18 0 19 0;
#X connect 19 0 108 0;
#X connect 20 0 21 0;
#X connect 21 0 22 0;
#X connect 22 0 23 0;
#X connect 23 0 109 0;
#X connect 24 0 25 0;
#X connect 25 0 26 0;
#X connect 26 0 27 0;
#X connect 27 0 110 0;
#X connect 28 0 29 0;
#X connect 29 0 30 0;
#X connect 30 0 31 0;
#X connect 31 0 111 0;
#X connect 32 0 33 0;
#X connect 33 0 34 0;
#X connect 34 0 35 0;
#X connect 35 0 112 0;
#X connect 36 0 37 0;
#X connect 37 0 38 0;
#X connect 38 0 39 0;
#X connect 39 0 113 0;
#X connect 40 0 41 0;
#X connect 41 0 42 0;
#X connect 42 0 43 0;
#X connect 43 0 114 0;
#X connect 44 0 45 0;
#X connect 45 0 46 0;
#X connect 46 0 47 0;
#X connect 47 0 115 0;
#X connect 48 0 49 0;
#X connect 49 0 50 0;
#X connect 50 0 51 0;
#X connect 51 0 116 0;
#X connect 52 0 53 0;
#X connect 53 0 54 0;
#X connect 54 0 55 0;
#X connect 55 0 117 0;
#X connect 56 0 57 0;
#X connect 57 0 58 0;
#X connect 58 0 59 0;
#X connect 59 0 118 0;
#X connect 60 0 61 0;
#X connect 61 0 62 0;
#X connect 62 0 63 0;
#X connect 63 0 119 0;
#X connect 64 0 2 1;
#X connect 64 0 6 1;
#X connect 64 0 10 1;
#X connect 64 0 14 1;
#X connect 64 0 18 1;
#X connect 64 0 22 1;
#X connect 64 0 26 1;
#X connect 64 0 30 1;
#X connect 64 0 34 1;
#X connect 64 0 38 1;
#X connect 64 0 42 1;
#X connect 64 0 46 1;
#X connect 64 0 50 1;
#X connect 64 0 54 1;
#X connect 64 0 58 1;
#X connect 64 0 62 1;
#X connect 65 0 0 0;
#X connect 65 0 4 0;
#X connect 65 0 8 0;
#X connect 65 0 12 0;
#X connect 65 0 16 0;
#X connect 65 0 20 0;
#X connect 65 0 24 0;
#X connect 65 0 28 0;
#X connect 65 0 32 0;
#X connect 65 0 36 0;
#X connect 65 0 40 0;
#X connect 65 0 44 0;
#X connect 65 0 48 0;
#X connect 65 0 52 0;
#X connect 65 0 56 0;
#X connect 65 0 60 0;
#X connect 67 0 64 0;
#X connect 69 0 73 0;
#X connect 69 1 72 0;
#X connect 69 2 75 0;
#X connect 69 3 74 0;
#X connect 69 4 77 0;
#X connect 69 5 76 0;
#X connect 69 6 79 0;
#X connect 69 7 78 0;
#X connect 69 8 81 0;
#X connect 69 9 80 0;
#X connect 69 10 83 0;
#X connect 69 11 82 0;
#X connect 69 12 85 0;
#X connect 69 13 84 0;
#X connect 69 14 87 0;
#X connect 69 15 86 0;
#X connect 70 0 69 0;
#X connect 72 0 4 0;
#X connect 73 0 0 0;
#X connect 74 0 12 0;
#X connect 75 0 8 0;
#X connect 76 0 20 0;
#X connect 77 0 16 0;
#X connect 78 0 28 0;
#X connect 79 0 24 0;
#X connect 80 0 36 0;
#X connect 81 0 32 0;
#X connect 82 0 44 0;
#X connect 83 0 40 0;
#X connect 84 0 52 0;
#X connect 85 0 48 0;
#X connect 86 0 60 0;
#X connect 87 0 56 0;
#X connect 88 0 73 1;
#X connect 89 0 72 1;
#X connect 90 0 75 1;
#X connect 91 0 74 1;
#X connect 92 0 77 1;
#X connect 93 0 76 1;
#X connect 94 0 79 1;
#X connect 95 0 78 1;
#X connect 96 0 81 1;
#X connect 97 0 80 1;
#X connect 98 0 83 1;
#X connect 99 0 82 1;
#X connect 100 0 85 1;
#X connect 101 0 84 1;
#X connect 102 0 87 1;
#X connect 103 0 86 1;
#X restore 1110 327 pd randomizer;
#N canvas 1025 541 861 465 noteselect 0;
#X obj 262 125 select 0 1 2 3 4 5 6 7 8 9 10 11 12 13 14 15;
#X obj 149 223 f;
#X obj 179 224 f;
#X obj 210 224 f;
#X obj 243 224 f;
#X obj 276 224 f;
#X obj 309 224 f;
#X obj 342 224 f;
#X obj 375 224 f;
#X obj 408 224 f;
#X obj 441 224 f;
#X obj 474 224 f;
#X obj 507 224 f;
#X obj 540 224 f;
#X obj 573 224 f;
#X obj 606 224 f;
#X obj 639 224 f;
#X obj 59 57 inlet;
#X obj 399 320 outlet;
#X obj 160 60 inlet;
#X obj 197 60 inlet;
#X obj 234 60 inlet;
#X obj 271 60 inlet;
#X obj 308 60 inlet;
#X obj 345 60 inlet;
#X obj 382 60 inlet;
#X obj 419 60 inlet;
#X obj 456 60 inlet;
#X obj 493 60 inlet;
#X obj 530 60 inlet;
#X obj 567 60 inlet;
#X obj 604 60 inlet;
#X obj 641 60 inlet;
#X obj 678 60 inlet;
#X obj 715 60 inlet;
#X connect 0 0 1 0;
#X connect 0 1 2 0;
#X connect 0 2 3 0;
#X connect 0 3 4 0;
#X connect 0 4 5 0;
#X connect 0 5 6 0;
#X connect 0 6 7 0;
#X connect 0 7 8 0;
#X connect 0 8 9 0;
#X connect 0 9 10 0;
#X connect 0 10 11 0;
#X connect 0 11 12 0;
#X connect 0 12 13 0;
#X connect 0 13 14 0;
#X connect 0 14 15 0;
#X connect 0 15 16 0;
#X connect 1 0 18 0;
#X connect 2 0 18 0;
#X connect 3 0 18 0;
#X connect 4 0 18 0;
#X connect 5 0 18 0;
#X connect 6 0 18 0;
#X connect 7 0 18 0;
#X connect 8 0 18 0;
#X connect 9 0 18 0;
#X connect 10 0 18 0;
#X connect 11 0 18 0;
#X connect 12 0 18 0;
#X connect 13 0 18 0;
#X connect 14 0 18 0;
#X connect 15 0 18 0;
#X connect 16 0 18 0;
#X connect 17 0 0 0;
#X connect 19 0 1 1;
#X connect 20 0 2 1;
#X connect 21 0 3 1;
#X connect 22 0 4 1;
#X connect 23 0 5 1;
#X connect 24 0 6 1;
#X connect 25 0 7 1;
#X connect 26 0 8 1;
#X connect 27 0 9 1;
#X connect 28 0 10 1;
#X connect 29 0 11 1;
#X connect 30 0 12 1;
#X connect 31 0 13 1;
#X connect 32 0 14 1;
#X connect 33 0 15 1;
#X connect 34 0 16 1;
#X restore 273 639 pd noteselect;
#X obj 267 120 cnv 15 538 280 empty empty empty 20 12 0 14 -132949
-66577 0;
#X obj 274 193 vsl 30 128 0 127 0 0 \$0-fad1-note empty empty 0 -9
0 10 -232576 -1 -1 4800 1;
#X obj 307 193 vsl 30 128 0 127 0 0 \$0-fad2-note empty empty 0 -9
0 10 -232576 -1 -1 4800 1;
#X obj 340 193 vsl 30 128 0 127 0 0 \$0-fad3-note empty empty 0 -9
0 10 -232576 -1 -1 4800 1;
#X obj 373 193 vsl 30 128 0 127 0 0 \$0-fad4-note empty empty 0 -9
0 10 -232576 -1 -1 4800 1;
#X obj 406 193 vsl 30 128 0 127 0 0 \$0-fad5-note empty empty 0 -9
0 10 -203904 -1 -1 4800 1;
#X obj 439 193 vsl 30 128 0 127 0 0 \$0-fad6-note empty empty 0 -9
0 10 -203904 -1 -1 4800 1;
#X obj 472 193 vsl 30 128 0 127 0 0 \$0-fad7-note empty empty 0 -9
0 10 -203904 -1 -1 4800 1;
#X obj 505 193 vsl 30 128 0 127 0 0 \$0-fad8-note empty empty 0 -9
0 10 -203904 -1 -1 4800 1;
#X obj 538 193 vsl 30 128 0 127 0 0 \$0-fad9-note empty empty 0 -9
0 10 -232576 -1 -1 4800 1;
#X obj 571 193 vsl 30 128 0 127 0 0 \$0-fad10-note empty empty 0 -9
0 10 -232576 -1 -1 4800 1;
#X obj 604 193 vsl 30 128 0 127 0 0 \$0-fad11-note empty empty 0 -9
0 10 -232576 -1 -1 4800 1;
#X obj 637 193 vsl 30 128 0 127 0 0 \$0-fad12-note empty empty 0 -9
0 10 -232576 -1 -1 4800 1;
#X obj 670 193 vsl 30 128 0 127 0 0 \$0-fad13-note empty empty 0 -9
0 10 -203904 -1 -1 4800 1;
#X obj 703 193 vsl 30 128 0 127 0 0 \$0-fad14-note empty empty 0 -9
0 10 -203904 -1 -1 4800 1;
#X obj 736 193 vsl 30 128 0 127 0 0 \$0-fad15-note empty empty 0 -9
0 10 -203904 -1 -1 4800 1;
#X obj 769 193 vsl 30 128 0 127 0 0 \$0-fad16-note empty empty 0 -9
0 10 -203904 -1 -1 4800 1;
#X floatatom 275 172 4 0 0 0 - #0-stp1-note-value -, f 4;
#X obj 273 328 hradio 33 1 0 16 empty empty empty 0 -8 0 10 -204786
-13381 -1 0;
#X obj 307 365 tgl 30 0 empty empty empty 17 7 0 10 -260566 -1 -1 0
1;
#X obj 274 365 tgl 30 0 empty empty Random\ Step -91 13 1 11 -260566
-1 -1 0 1;
#X obj 373 365 tgl 30 0 empty empty empty 17 7 0 10 -260566 -1 -1 0
1;
#X obj 340 365 tgl 30 0 empty empty empty 17 7 0 10 -260566 -1 -1 0
1;
#X obj 439 365 tgl 30 0 empty empty empty 17 7 0 10 -260566 -1 -1 0
1;
#X obj 406 365 tgl 30 0 empty empty empty 17 7 0 10 -260566 -1 -1 0
1;
#X obj 505 365 tgl 30 0 empty empty empty 17 7 0 10 -260566 -1 -1 0
1;
#X obj 472 365 tgl 30 0 empty empty empty 17 7 0 10 -260566 -1 -1 0
1;
#X obj 571 365 tgl 30 0 empty empty empty 17 7 0 10 -260566 -1 -1 0
1;
#X obj 538 365 tgl 30 0 empty empty empty 17 7 0 10 -260566 -1 -1 0
1;
#X obj 637 365 tgl 30 0 empty empty empty 17 7 0 10 -260566 -1 -1 0
1;
#X obj 604 365 tgl 30 0 empty empty empty 17 7 0 10 -260566 -1 -1 0
1;
#X obj 703 365 tgl 30 0 empty empty empty 17 7 0 10 -260566 -1 -1 0
1;
#X obj 670 365 tgl 30 0 empty empty empty 17 7 0 10 -260566 -1 -1 0
1;
#X obj 769 365 tgl 30 0 empty empty empty 17 7 0 10 -260566 -1 -1 0
1;
#X obj 736 365 tgl 30 0 empty empty empty 17 7 0 10 -260566 -1 -1 0
1;
#X obj 1092 7 notein;
#X obj 1191 37 > 0;
#X floatatom 1192 58 5 0 0 0 - - -, f 5;
#X obj 1192 81 select 1;
#X obj 1191 105 bng 15 250 50 0 empty empty empty 17 7 0 10 -262144
-1 -1;
#X obj 1192 134 f;
#X obj 1255 134 + 1;
#X obj 562 407 bng 15 250 50 0 empty empty Seq.\ Init -74 5 1 12 -2817
-1 -1;
#X floatatom 1172 185 5 0 0 0 - - #0-active-step, f 5;
#X floatatom 31 101 5 0 0 0 - #0-active-step -, f 5;
#X msg 1096 88 0;
#N canvas 22 496 450 650 const_note 0;
#X obj 226 92 int;
#X obj 226 120 mod 12;
#X obj 192 149 / 12;
#X obj 192 171 int;
#X obj 88 36 inlet;
#X obj 76 348 outlet;
#X obj 199 347 outlet;
#X obj 140 343 outlet;
#X obj 255 265 text get notes-data;
#X msg 302 164 0;
#X connect 0 0 1 0;
#X connect 0 0 2 0;
#X connect 0 0 5 0;
#X connect 1 0 8 1;
#X connect 1 0 9 0;
#X connect 2 0 3 0;
#X connect 3 0 6 0;
#X connect 4 0 0 0;
#X connect 8 0 7 0;
#X connect 9 0 8 0;
#X restore 576 484 pd const_note;
#X floatatom 576 464 5 0 0 0 - #0-fad1-note -, f 5;
#X floatatom 576 505 4 0 0 0 - - #0-stp1-note-value, f 4;
#X floatatom 637 505 3 0 0 0 - - #0-stp1-note-octave, f 3;
#X symbolatom 612 505 3 0 0 0 - - #0-stp1-note-name, f 3;
#X floatatom 287 609 5 0 0 0 - #0-stp1-note-value -, f 5;
#X floatatom 275 150 4 0 0 0 - #0-stp1-note-octave -, f 4;
#X symbolatom 275 128 4 0 0 0 - #0-stp1-note-name -, f 4;
#X text 220 150 Octave;
#X text 220 171 Value;
#X text 220 129 Name;
#X floatatom 674 464 5 0 0 0 - #0-fad2-note -, f 5;
#X floatatom 674 505 4 0 0 0 - - #0-stp2-note-value, f 4;
#X floatatom 735 505 3 0 0 0 - - #0-stp2-note-octave, f 3;
#X symbolatom 710 505 3 0 0 0 - - #0-stp2-note-name, f 3;
#X floatatom 772 464 5 0 0 0 - #0-fad3-note -, f 5;
#X floatatom 772 505 4 0 0 0 - - #0-stp3-note-value, f 4;
#X floatatom 833 505 3 0 0 0 - - #0-stp3-note-octave, f 3;
#X symbolatom 808 505 3 0 0 0 - - #0-stp3-note-name, f 3;
#X floatatom 870 463 5 0 0 0 - #0-fad4-note -, f 5;
#X floatatom 870 504 4 0 0 0 - - #0-stp4-note-value, f 4;
#X floatatom 931 504 3 0 0 0 - - #0-stp4-note-octave, f 3;
#X symbolatom 906 504 3 0 0 0 - - #0-stp4-note-name, f 3;
#X floatatom 577 533 5 0 0 0 - #0-fad5-note -, f 5;
#X floatatom 577 574 4 0 0 0 - - #0-stp5-note-value, f 4;
#X floatatom 638 574 3 0 0 0 - - #0-stp5-note-octave, f 3;
#X symbolatom 613 574 3 0 0 0 - - #0-stp5-note-name, f 3;
#X floatatom 675 533 5 0 0 0 - #0-fad6-note -, f 5;
#X floatatom 675 574 4 0 0 0 - - #0-stp6-note-value, f 4;
#X floatatom 736 574 3 0 0 0 - - #0-stp6-note-octave, f 3;
#X symbolatom 711 574 3 0 0 0 - - #0-stp6-note-name, f 3;
#X floatatom 773 533 5 0 0 0 - #0-fad7-note -, f 5;
#X floatatom 773 574 4 0 0 0 - - #0-stp7-note-value, f 4;
#X floatatom 834 574 3 0 0 0 - - #0-stp7-note-octave, f 3;
#X symbolatom 809 574 3 0 0 0 - - #0-stp7-note-name, f 3;
#X floatatom 871 532 5 0 0 0 - #0-fad8-note -, f 5;
#X floatatom 871 573 4 0 0 0 - - #0-stp8-note-value, f 4;
#X floatatom 932 573 3 0 0 0 - - #0-stp8-note-octave, f 3;
#X symbolatom 907 573 3 0 0 0 - - #0-stp8-note-name, f 3;
#X floatatom 577 600 5 0 0 0 - #0-fad9-note -, f 5;
#X floatatom 577 641 4 0 0 0 - - #0-stp9-note-value, f 4;
#X floatatom 638 641 3 0 0 0 - - #0-stp9-note-octave, f 3;
#X symbolatom 613 641 3 0 0 0 - - #0-stp9-note-name, f 3;
#X floatatom 675 600 5 0 0 0 - #0-fad10-note -, f 5;
#X floatatom 675 641 4 0 0 0 - - #0-stp10-note-value, f 4;
#X floatatom 736 641 3 0 0 0 - - #0-stp10-note-octave, f 3;
#X symbolatom 711 641 3 0 0 0 - - #0-stp10-note-name, f 3;
#X floatatom 773 600 5 0 0 0 - #0-fad11-note -, f 5;
#X floatatom 773 641 4 0 0 0 - - #0-stp11-note-value, f 4;
#X floatatom 834 641 3 0 0 0 - - #0-stp11-note-octave, f 3;
#X symbolatom 809 641 3 0 0 0 - - #0-stp11-note-name, f 3;
#X floatatom 871 599 5 0 0 0 - #0-fad12-note -, f 5;
#X floatatom 871 640 4 0 0 0 - - #0-stp12-note-value, f 4;
#X floatatom 932 640 3 0 0 0 - - #0-stp12-note-octave, f 3;
#X symbolatom 907 640 3 0 0 0 - - #0-stp12-note-name, f 3;
#X floatatom 308 172 4 0 0 0 - #0-stp2-note-value -, f 4;
#X floatatom 308 150 4 0 0 0 - #0-stp2-note-octave -, f 4;
#X symbolatom 308 128 4 0 0 0 - #0-stp2-note-name -, f 4;
#X floatatom 341 172 4 0 0 0 - #0-stp3-note-value -, f 4;
#X floatatom 341 150 4 0 0 0 - #0-stp3-note-octave -, f 4;
#X symbolatom 341 128 4 0 0 0 - #0-stp3-note-name -, f 4;
#X floatatom 374 172 4 0 0 0 - #0-stp4-note-value -, f 4;
#X floatatom 374 150 4 0 0 0 - #0-stp4-note-octave -, f 4;
#X symbolatom 374 128 4 0 0 0 - #0-stp4-note-name -, f 4;
#X floatatom 407 172 4 0 0 0 - #0-stp5-note-value -, f 4;
#X floatatom 407 150 4 0 0 0 - #0-stp5-note-octave -, f 4;
#X symbolatom 407 128 4 0 0 0 - #0-stp5-note-name -, f 4;
#X floatatom 440 172 4 0 0 0 - #0-stp6-note-value -, f 4;
#X floatatom 440 150 4 0 0 0 - #0-stp6-note-octave -, f 4;
#X symbolatom 440 128 4 0 0 0 - #0-stp6-note-name -, f 4;
#X floatatom 473 172 4 0 0 0 - #0-stp7-note-value -, f 4;
#X floatatom 473 150 4 0 0 0 - #0-stp7-note-octave -, f 4;
#X symbolatom 473 128 4 0 0 0 - #0-stp7-note-name -, f 4;
#X floatatom 506 172 4 0 0 0 - #0-stp8-note-value -, f 4;
#X floatatom 506 150 4 0 0 0 - #0-stp8-note-octave -, f 4;
#X symbolatom 506 128 4 0 0 0 - #0-stp8-note-name -, f 4;
#X floatatom 539 172 4 0 0 0 - #0-stp9-note-value -, f 4;
#X floatatom 539 150 4 0 0 0 - #0-stp9-note-octave -, f 4;
#X symbolatom 539 128 4 0 0 0 - #0-stp9-note-name -, f 4;
#X floatatom 572 172 4 0 0 0 - #0-stp10-note-value -, f 4;
#X floatatom 572 150 4 0 0 0 - #0-stp10-note-octave -, f 4;
#X symbolatom 572 128 4 0 0 0 - #0-stp10-note-name -, f 4;
#X floatatom 605 172 4 0 0 0 - #0-stp11-note-value -, f 4;
#X floatatom 605 150 4 0 0 0 - #0-stp11-note-octave -, f 4;
#X symbolatom 605 128 4 0 0 0 - #0-stp11-note-name -, f 4;
#X floatatom 638 172 4 0 0 0 - #0-stp12-note-value -, f 4;
#X floatatom 638 150 4 0 0 0 - #0-stp12-note-octave -, f 4;
#X symbolatom 638 128 4 0 0 0 - #0-stp12-note-name -, f 4;
#X floatatom 671 172 4 0 0 0 - #0-stp13-note-value -, f 4;
#X floatatom 671 150 4 0 0 0 - #0-stp13-note-octave -, f 4;
#X symbolatom 671 128 4 0 0 0 - #0-stp13-note-name -, f 4;
#X floatatom 704 172 4 0 0 0 - #0-stp14-note-value -, f 4;
#X floatatom 704 150 4 0 0 0 - #0-stp14-note-octave -, f 4;
#X symbolatom 704 128 4 0 0 0 - #0-stp14-note-name -, f 4;
#X floatatom 737 172 4 0 0 0 - #0-stp15-note-value -, f 4;
#X floatatom 737 150 4 0 0 0 - #0-stp15-note-octave -, f 4;
#X symbolatom 737 128 4 0 0 0 - #0-stp15-note-name -, f 4;
#X floatatom 770 172 4 0 0 0 - #0-stp16-note-value -, f 4;
#X floatatom 770 150 4 0 0 0 - #0-stp16-note-octave -, f 4;
#X symbolatom 770 128 4 0 0 0 - #0-stp16-note-name -, f 4;
#X floatatom 577 666 5 0 0 0 - #0-fad13-note -, f 5;
#X floatatom 577 707 4 0 0 0 - - #0-stp13-note-value, f 4;
#X floatatom 638 707 3 0 0 0 - - #0-stp13-note-octave, f 3;
#X symbolatom 613 707 3 0 0 0 - - #0-stp13-note-name, f 3;
#X floatatom 675 666 5 0 0 0 - #0-fad14-note -, f 5;
#X floatatom 675 707 4 0 0 0 - - #0-stp14-note-value, f 4;
#X floatatom 736 707 3 0 0 0 - - #0-stp14-note-octave, f 3;
#X symbolatom 711 707 3 0 0 0 - - #0-stp14-note-name, f 3;
#X floatatom 773 666 5 0 0 0 - #0-fad15-note -, f 5;
#X floatatom 773 707 4 0 0 0 - - #0-stp15-note-value, f 4;
#X floatatom 834 707 3 0 0 0 - - #0-stp15-note-octave, f 3;
#X symbolatom 809 707 3 0 0 0 - - #0-stp15-note-name, f 3;
#X floatatom 871 665 5 0 0 0 - #0-fad16-note -, f 5;
#X floatatom 871 706 4 0 0 0 - - #0-stp16-note-value, f 4;
#X floatatom 932 706 3 0 0 0 - - #0-stp16-note-octave, f 3;
#X symbolatom 907 706 3 0 0 0 - - #0-stp16-note-name, f 3;
#X msg 1037 106 48;
#X floatatom 301 583 5 0 0 0 - #0-stp2-note-value -, f 5;
#X floatatom 315 557 5 0 0 0 - #0-stp3-note-value -, f 5;
#X floatatom 329 609 5 0 0 0 - #0-stp4-note-value -, f 5;
#X floatatom 343 583 5 0 0 0 - #0-stp5-note-value -, f 5;
#X floatatom 357 557 5 0 0 0 - #0-stp6-note-value -, f 5;
#X floatatom 371 609 5 0 0 0 - #0-stp7-note-value -, f 5;
#X floatatom 385 583 5 0 0 0 - #0-stp8-note-value -, f 5;
#X floatatom 399 557 5 0 0 0 - #0-stp9-note-value -, f 5;
#X floatatom 413 609 5 0 0 0 - #0-stp10-note-value -, f 5;
#X floatatom 427 583 5 0 0 0 - #0-stp11-note-value -, f 5;
#X floatatom 441 557 5 0 0 0 - #0-stp12-note-value -, f 5;
#X floatatom 455 609 5 0 0 0 - #0-stp13-note-value -, f 5;
#X floatatom 469 583 5 0 0 0 - #0-stp14-note-value -, f 5;
#X floatatom 483 557 5 0 0 0 - #0-stp15-note-value -, f 5;
#X floatatom 497 609 5 0 0 0 - #0-stp16-note-value -, f 5;
#X obj 219 316 nbx 3 14 20 320 0 0 empty empty Step\ Length -74 5 0
10 -261088 -1 -1 20 256 0;
#X scalar text 1532 686 \; \;;
#X obj 976 540 text fromlist notes-data;
#X obj 975 576 text define notes-data;
#X msg 978 500 list C C# D D# E F F# G G# A A# B;
#N canvas 22 496 450 650 const_note 0;
#X obj 226 92 int;
#X obj 226 120 mod 12;
#X obj 192 149 / 12;
#X obj 192 171 int;
#X obj 88 36 inlet;
#X obj 76 348 outlet;
#X obj 199 347 outlet;
#X obj 140 343 outlet;
#X obj 255 265 text get notes-data;
#X msg 302 164 0;
#X connect 0 0 1 0;
#X connect 0 0 2 0;
#X connect 0 0 5 0;
#X connect 1 0 8 1;
#X connect 1 0 9 0;
#X connect 2 0 3 0;
#X connect 3 0 6 0;
#X connect 4 0 0 0;
#X connect 8 0 7 0;
#X connect 9 0 8 0;
#X restore 674 484 pd const_note;
#N canvas 22 496 450 650 const_note 0;
#X obj 226 92 int;
#X obj 226 120 mod 12;
#X obj 192 149 / 12;
#X obj 192 171 int;
#X obj 88 36 inlet;
#X obj 76 348 outlet;
#X obj 199 347 outlet;
#X obj 140 343 outlet;
#X obj 255 265 text get notes-data;
#X msg 302 164 0;
#X connect 0 0 1 0;
#X connect 0 0 2 0;
#X connect 0 0 5 0;
#X connect 1 0 8 1;
#X connect 1 0 9 0;
#X connect 2 0 3 0;
#X connect 3 0 6 0;
#X connect 4 0 0 0;
#X connect 8 0 7 0;
#X connect 9 0 8 0;
#X restore 772 484 pd const_note;
#N canvas 22 496 450 650 const_note 0;
#X obj 226 92 int;
#X obj 226 120 mod 12;
#X obj 192 149 / 12;
#X obj 192 171 int;
#X obj 88 36 inlet;
#X obj 76 348 outlet;
#X obj 199 347 outlet;
#X obj 140 343 outlet;
#X obj 255 265 text get notes-data;
#X msg 302 164 0;
#X connect 0 0 1 0;
#X connect 0 0 2 0;
#X connect 0 0 5 0;
#X connect 1 0 8 1;
#X connect 1 0 9 0;
#X connect 2 0 3 0;
#X connect 3 0 6 0;
#X connect 4 0 0 0;
#X connect 8 0 7 0;
#X connect 9 0 8 0;
#X restore 870 483 pd const_note;
#N canvas 22 496 450 650 const_note 0;
#X obj 226 92 int;
#X obj 226 120 mod 12;
#X obj 192 149 / 12;
#X obj 192 171 int;
#X obj 88 36 inlet;
#X obj 76 348 outlet;
#X obj 199 347 outlet;
#X obj 140 343 outlet;
#X obj 255 265 text get notes-data;
#X msg 302 164 0;
#X connect 0 0 1 0;
#X connect 0 0 2 0;
#X connect 0 0 5 0;
#X connect 1 0 8 1;
#X connect 1 0 9 0;
#X connect 2 0 3 0;
#X connect 3 0 6 0;
#X connect 4 0 0 0;
#X connect 8 0 7 0;
#X connect 9 0 8 0;
#X restore 577 553 pd const_note;
#N canvas 22 496 450 650 const_note 0;
#X obj 226 92 int;
#X obj 226 120 mod 12;
#X obj 192 149 / 12;
#X obj 192 171 int;
#X obj 88 36 inlet;
#X obj 76 348 outlet;
#X obj 199 347 outlet;
#X obj 140 343 outlet;
#X obj 255 265 text get notes-data;
#X msg 302 164 0;
#X connect 0 0 1 0;
#X connect 0 0 2 0;
#X connect 0 0 5 0;
#X connect 1 0 8 1;
#X connect 1 0 9 0;
#X connect 2 0 3 0;
#X connect 3 0 6 0;
#X connect 4 0 0 0;
#X connect 8 0 7 0;
#X connect 9 0 8 0;
#X restore 675 553 pd const_note;
#N canvas 22 496 450 650 const_note 0;
#X obj 226 92 int;
#X obj 226 120 mod 12;
#X obj 192 149 / 12;
#X obj 192 171 int;
#X obj 88 36 inlet;
#X obj 76 348 outlet;
#X obj 199 347 outlet;
#X obj 140 343 outlet;
#X obj 255 265 text get notes-data;
#X msg 302 164 0;
#X connect 0 0 1 0;
#X connect 0 0 2 0;
#X connect 0 0 5 0;
#X connect 1 0 8 1;
#X connect 1 0 9 0;
#X connect 2 0 3 0;
#X connect 3 0 6 0;
#X connect 4 0 0 0;
#X connect 8 0 7 0;
#X connect 9 0 8 0;
#X restore 773 553 pd const_note;
#N canvas 22 496 450 650 const_note 0;
#X obj 226 92 int;
#X obj 226 120 mod 12;
#X obj 192 149 / 12;
#X obj 192 171 int;
#X obj 88 36 inlet;
#X obj 76 348 outlet;
#X obj 199 347 outlet;
#X obj 140 343 outlet;
#X obj 255 265 text get notes-data;
#X msg 302 164 0;
#X connect 0 0 1 0;
#X connect 0 0 2 0;
#X connect 0 0 5 0;
#X connect 1 0 8 1;
#X connect 1 0 9 0;
#X connect 2 0 3 0;
#X connect 3 0 6 0;
#X connect 4 0 0 0;
#X connect 8 0 7 0;
#X connect 9 0 8 0;
#X restore 871 552 pd const_note;
#N canvas 22 496 450 650 const_note 0;
#X obj 226 92 int;
#X obj 226 120 mod 12;
#X obj 192 149 / 12;
#X obj 192 171 int;
#X obj 88 36 inlet;
#X obj 76 348 outlet;
#X obj 199 347 outlet;
#X obj 140 343 outlet;
#X obj 255 265 text get notes-data;
#X msg 302 164 0;
#X connect 0 0 1 0;
#X connect 0 0 2 0;
#X connect 0 0 5 0;
#X connect 1 0 8 1;
#X connect 1 0 9 0;
#X connect 2 0 3 0;
#X connect 3 0 6 0;
#X connect 4 0 0 0;
#X connect 8 0 7 0;
#X connect 9 0 8 0;
#X restore 577 620 pd const_note;
#N canvas 22 496 450 650 const_note 0;
#X obj 226 92 int;
#X obj 226 120 mod 12;
#X obj 192 149 / 12;
#X obj 192 171 int;
#X obj 88 36 inlet;
#X obj 76 348 outlet;
#X obj 199 347 outlet;
#X obj 140 343 outlet;
#X obj 255 265 text get notes-data;
#X msg 302 164 0;
#X connect 0 0 1 0;
#X connect 0 0 2 0;
#X connect 0 0 5 0;
#X connect 1 0 8 1;
#X connect 1 0 9 0;
#X connect 2 0 3 0;
#X connect 3 0 6 0;
#X connect 4 0 0 0;
#X connect 8 0 7 0;
#X connect 9 0 8 0;
#X restore 675 620 pd const_note;
#N canvas 22 496 450 650 const_note 0;
#X obj 226 92 int;
#X obj 226 120 mod 12;
#X obj 192 149 / 12;
#X obj 192 171 int;
#X obj 88 36 inlet;
#X obj 76 348 outlet;
#X obj 199 347 outlet;
#X obj 140 343 outlet;
#X obj 255 265 text get notes-data;
#X msg 302 164 0;
#X connect 0 0 1 0;
#X connect 0 0 2 0;
#X connect 0 0 5 0;
#X connect 1 0 8 1;
#X connect 1 0 9 0;
#X connect 2 0 3 0;
#X connect 3 0 6 0;
#X connect 4 0 0 0;
#X connect 8 0 7 0;
#X connect 9 0 8 0;
#X restore 773 620 pd const_note;
#N canvas 22 496 450 650 const_note 0;
#X obj 226 92 int;
#X obj 226 120 mod 12;
#X obj 192 149 / 12;
#X obj 192 171 int;
#X obj 88 36 inlet;
#X obj 76 348 outlet;
#X obj 199 347 outlet;
#X obj 140 343 outlet;
#X obj 255 265 text get notes-data;
#X msg 302 164 0;
#X connect 0 0 1 0;
#X connect 0 0 2 0;
#X connect 0 0 5 0;
#X connect 1 0 8 1;
#X connect 1 0 9 0;
#X connect 2 0 3 0;
#X connect 3 0 6 0;
#X connect 4 0 0 0;
#X connect 8 0 7 0;
#X connect 9 0 8 0;
#X restore 871 619 pd const_note;
#N canvas 22 496 450 650 const_note 0;
#X obj 226 92 int;
#X obj 226 120 mod 12;
#X obj 192 149 / 12;
#X obj 192 171 int;
#X obj 88 36 inlet;
#X obj 76 348 outlet;
#X obj 199 347 outlet;
#X obj 140 343 outlet;
#X obj 255 265 text get notes-data;
#X msg 302 164 0;
#X connect 0 0 1 0;
#X connect 0 0 2 0;
#X connect 0 0 5 0;
#X connect 1 0 8 1;
#X connect 1 0 9 0;
#X connect 2 0 3 0;
#X connect 3 0 6 0;
#X connect 4 0 0 0;
#X connect 8 0 7 0;
#X connect 9 0 8 0;
#X restore 577 686 pd const_note;
#N canvas 22 496 450 650 const_note 0;
#X obj 226 92 int;
#X obj 226 120 mod 12;
#X obj 192 149 / 12;
#X obj 192 171 int;
#X obj 88 36 inlet;
#X obj 76 348 outlet;
#X obj 199 347 outlet;
#X obj 140 343 outlet;
#X obj 255 265 text get notes-data;
#X msg 302 164 0;
#X connect 0 0 1 0;
#X connect 0 0 2 0;
#X connect 0 0 5 0;
#X connect 1 0 8 1;
#X connect 1 0 9 0;
#X connect 2 0 3 0;
#X connect 3 0 6 0;
#X connect 4 0 0 0;
#X connect 8 0 7 0;
#X connect 9 0 8 0;
#X restore 675 686 pd const_note;
#N canvas 22 496 450 650 const_note 0;
#X obj 226 92 int;
#X obj 226 120 mod 12;
#X obj 192 149 / 12;
#X obj 192 171 int;
#X obj 88 36 inlet;
#X obj 76 348 outlet;
#X obj 199 347 outlet;
#X obj 140 343 outlet;
#X obj 255 265 text get notes-data;
#X msg 302 164 0;
#X connect 0 0 1 0;
#X connect 0 0 2 0;
#X connect 0 0 5 0;
#X connect 1 0 8 1;
#X connect 1 0 9 0;
#X connect 2 0 3 0;
#X connect 3 0 6 0;
#X connect 4 0 0 0;
#X connect 8 0 7 0;
#X connect 9 0 8 0;
#X restore 773 686 pd const_note;
#N canvas 22 496 450 650 const_note 0;
#X obj 226 92 int;
#X obj 226 120 mod 12;
#X obj 192 149 / 12;
#X obj 192 171 int;
#X obj 88 36 inlet;
#X obj 76 348 outlet;
#X obj 199 347 outlet;
#X obj 140 343 outlet;
#X obj 255 265 text get notes-data;
#X msg 302 164 0;
#X connect 0 0 1 0;
#X connect 0 0 2 0;
#X connect 0 0 5 0;
#X connect 1 0 8 1;
#X connect 1 0 9 0;
#X connect 2 0 3 0;
#X connect 3 0 6 0;
#X connect 4 0 0 0;
#X connect 8 0 7 0;
#X connect 9 0 8 0;
#X restore 871 685 pd const_note;
#X connect 1 0 32 0;
#X connect 2 0 10 0;
#X connect 3 0 176 0;
#X connect 4 0 12 1;
#X connect 5 0 10 1;
#X connect 5 0 11 1;
#X connect 6 0 1 1;
#X connect 7 0 12 0;
#X connect 8 0 11 0;
#X connect 9 0 3 0;
#X connect 9 0 56 0;
#X connect 9 0 2 0;
#X connect 9 0 196 0;
#X connect 9 0 192 0;
#X connect 12 0 15 0;
#X connect 12 1 16 0;
#X connect 12 2 17 0;
#X connect 12 3 18 0;
#X connect 12 4 19 0;
#X connect 12 5 20 0;
#X connect 12 6 21 0;
#X connect 12 7 22 0;
#X connect 12 8 23 0;
#X connect 12 9 24 0;
#X connect 12 10 25 0;
#X connect 12 11 26 0;
#X connect 12 12 27 0;
#X connect 12 13 28 0;
#X connect 12 14 29 0;
#X connect 12 15 30 0;
#X connect 13 0 11 2;
#X connect 32 0 13 0;
#X connect 32 0 12 2;
#X connect 33 0 12 4;
#X connect 34 0 12 3;
#X connect 35 0 12 6;
#X connect 36 0 12 5;
#X connect 37 0 12 8;
#X connect 38 0 12 7;
#X connect 39 0 12 10;
#X connect 40 0 12 9;
#X connect 41 0 12 12;
#X connect 42 0 12 11;
#X connect 43 0 12 14;
#X connect 44 0 12 13;
#X connect 45 0 12 16;
#X connect 46 0 12 15;
#X connect 47 0 12 18;
#X connect 48 0 12 17;
#X connect 49 1 50 0;
#X connect 49 2 5 0;
#X connect 50 0 51 0;
#X connect 51 0 52 0;
#X connect 52 0 53 0;
#X connect 53 0 54 0;
#X connect 54 0 55 0;
#X connect 54 0 57 0;
#X connect 55 0 54 1;
#X connect 56 0 59 0;
#X connect 58 0 1 0;
#X connect 59 0 54 1;
#X connect 59 0 57 0;
#X connect 60 0 62 0;
#X connect 60 1 64 0;
#X connect 60 2 63 0;
#X connect 61 0 60 0;
#X connect 65 0 13 1;
#X connect 71 0 197 0;
#X connect 75 0 198 0;
#X connect 79 0 199 0;
#X connect 83 0 200 0;
#X connect 87 0 201 0;
#X connect 91 0 202 0;
#X connect 95 0 203 0;
#X connect 99 0 204 0;
#X connect 103 0 205 0;
#X connect 107 0 206 0;
#X connect 111 0 207 0;
#X connect 160 0 208 0;
#X connect 164 0 209 0;
#X connect 168 0 210 0;
#X connect 172 0 211 0;
#X connect 176 0 15 0;
#X connect 176 0 16 0;
#X connect 176 0 17 0;
#X connect 176 0 18 0;
#X connect 176 0 19 0;
#X connect 176 0 20 0;
#X connect 176 0 21 0;
#X connect 176 0 22 0;
#X connect 176 0 23 0;
#X connect 176 0 24 0;
#X connect 176 0 25 0;
#X connect 176 0 26 0;
#X connect 176 0 27 0;
#X connect 176 0 28 0;
#X connect 176 0 29 0;
#X connect 176 0 30 0;
#X connect 177 0 13 2;
#X connect 178 0 13 3;
#X connect 179 0 13 4;
#X connect 180 0 13 5;
#X connect 181 0 13 6;
#X connect 182 0 13 7;
#X connect 183 0 13 8;
#X connect 184 0 13 9;
#X connect 185 0 13 10;
#X connect 186 0 13 11;
#X connect 187 0 13 12;
#X connect 188 0 13 13;
#X connect 189 0 13 14;
#X connect 190 0 13 15;
#X connect 191 0 13 16;
#X connect 192 0 11 3;
#X connect 196 0 194 0;
#X connect 197 0 72 0;
#X connect 197 1 74 0;
#X connect 197 2 73 0;
#X connect 198 0 76 0;
#X connect 198 1 78 0;
#X connect 198 2 77 0;
#X connect 199 0 80 0;
#X connect 199 1 82 0;
#X connect 199 2 81 0;
#X connect 200 0 84 0;
#X connect 200 1 86 0;
#X connect 200 2 85 0;
#X connect 201 0 88 0;
#X connect 201 1 90 0;
#X connect 201 2 89 0;
#X connect 202 0 92 0;
#X connect 202 1 94 0;
#X connect 202 2 93 0;
#X connect 203 0 96 0;
#X connect 203 1 98 0;
#X connect 203 2 97 0;
#X connect 204 0 100 0;
#X connect 204 1 102 0;
#X connect 204 2 101 0;
#X connect 205 0 104 0;
#X connect 205 1 106 0;
#X connect 205 2 105 0;
#X connect 206 0 108 0;
#X connect 206 1 110 0;
#X connect 206 2 109 0;
#X connect 207 0 112 0;
#X connect 207 1 114 0;
#X connect 207 2 113 0;
#X connect 208 0 161 0;
#X connect 208 1 163 0;
#X connect 208 2 162 0;
#X connect 209 0 165 0;
#X connect 209 1 167 0;
#X connect 209 2 166 0;
#X connect 210 0 169 0;
#X connect 210 1 171 0;
#X connect 210 2 170 0;
#X connect 211 0 173 0;
#X connect 211 1 175 0;
#X connect 211 2 174 0;
#X coords 0 -1 1 1 700 317 1 129 112;
